# xmcd CD database file
#
# Track frame offsets:
#	187
#	22542
#	39025
#	54052
#	73692
#	90695
#	107465
#	124987
#	142292
#	158917
#
# Disc length: 2428 seconds
#
# Revision: 0
# Processed by: cddbd v1.5PL3 Copyright (c) Steve Scherf et al.
# Submitted via: CDex 1.51
#
DISCID=76097a0a
DTITLE=荻野目洋子 - フリージアの雨
DYEAR=1985
DGENRE=Pop
TTITLE0=入江に帰るヨットのように
TTITLE1=フリージアの雨
TTITLE2=無国籍ロマンス
TTITLE3=想い出のジューク・ボックス
TTITLE4=マイ キャサリン
TTITLE5=B の 噂
TTITLE6=彼と彼女とひこうき雲
TTITLE7=ポインセチアの想い
TTITLE8=雨とジャスミン
TTITLE9=雨のメモリー
EXTD=YEAR: 1985
EXTT0=
EXTT1=
EXTT2=
EXTT3=
EXTT4=
EXTT5=
EXTT6=
EXTT7=
EXTT8=
EXTT9=
PLAYORDER=
